<?xml version="1.0" encoding="UTF-8" standalone="no"?>
<!-- Created with Inkscape (http://www.inkscape.org/) -->

<svg
   width="210.09053mm"
   height="297.13275mm"
   viewBox="0 0 210.09053 297.13275"
   version="1.1"
   id="svg1"
   xmlns="http://www.w3.org/2000/svg"
   xmlns:svg="http://www.w3.org/2000/svg">
  <defs
     id="defs1" />
  <g
     id="layer1"
     transform="translate(-18.829553,-1.6973763)">
    <path
       id="rect14"
       style="vector-effect:non-scaling-stroke;fill:none;fill-opacity:1;stroke:#acacac;stroke-width:0.264583;stroke-dasharray:none;stroke-dashoffset:0;stroke-opacity:1;-inkscape-stroke:hairline;paint-order:markers stroke fill"
       d="m 91.746549,284.06464 -5.00693,14.7655 h 27.462411 z" />
    <path
       id="path105"
       style="vector-effect:non-scaling-stroke;fill:none;fill-opacity:1;stroke:#acacac;stroke-width:0.264583;stroke-dasharray:none;stroke-dashoffset:0;stroke-opacity:1;-inkscape-stroke:hairline;paint-order:markers stroke fill"
       d="m 24.632816,283.77628 a 123.78736,123.78736 0 0 0 15.054378,15.05386 h 47.052425 l 5.00693,-14.7655 -29.025619,-19.08618 z" />
    <path
       id="path104"
       style="vector-effect:non-scaling-stroke;fill:none;fill-opacity:1;stroke:#acacac;stroke-width:0.264583;stroke-dasharray:none;stroke-dashoffset:0;stroke-opacity:1;-inkscape-stroke:hairline;paint-order:markers stroke fill"
       d="m 18.829553,286.64019 v 12.18995 H 39.687194 A 123.78736,123.78736 0 0 1 24.632816,283.77628 Z" />
    <path
       id="path103"
       style="vector-effect:non-scaling-stroke;fill:none;fill-opacity:1;stroke:#acacac;stroke-width:0.264583;stroke-dasharray:none;stroke-dashoffset:0;stroke-opacity:1;-inkscape-stroke:hairline;paint-order:markers stroke fill"
       d="m 18.829553,286.64019 5.803263,-2.86391 a 123.78736,123.78736 0 0 1 -5.803263,-5.80326 z" />
    <path
       id="path102"
       style="vector-effect:non-scaling-stroke;fill:none;fill-opacity:1;stroke:#acacac;stroke-width:0.264583;stroke-dasharray:none;stroke-dashoffset:0;stroke-opacity:1;-inkscape-stroke:hairline;paint-order:markers stroke fill"
       d="M 55.022692,259.91624 18.829553,236.11666 v 41.24813 z" />
    <path
       id="path101"
       style="vector-effect:non-scaling-stroke;fill:none;fill-opacity:1;stroke:#acacac;stroke-width:0.264583;stroke-dasharray:none;stroke-dashoffset:0;stroke-opacity:1;-inkscape-stroke:hairline;paint-order:markers stroke fill"
       d="m 55.022692,259.91624 -36.193139,17.44855 v 0.60823 a 123.78736,123.78736 0 0 0 5.803263,5.80326 L 62.72093,264.97846 Z" />
    <path
       id="path100"
       style="vector-effect:non-scaling-stroke;fill:none;fill-opacity:1;stroke:#acacac;stroke-width:0.264583;stroke-dasharray:none;stroke-dashoffset:0;stroke-opacity:1;-inkscape-stroke:hairline;paint-order:markers stroke fill"
       d="M 74.858691,250.35352 18.829553,222.70146 v 13.4152 l 36.193139,23.79958 z" />
    <path
       id="path99"
       style="vector-effect:non-scaling-stroke;fill:none;fill-opacity:1;stroke:#acacac;stroke-width:0.264583;stroke-dasharray:none;stroke-dashoffset:0;stroke-opacity:1;-inkscape-stroke:hairline;paint-order:markers stroke fill"
       d="m 74.858691,250.35352 -19.835999,9.56272 7.698238,5.06222 20.885547,-10.30789 z" />
    <path
       id="path98"
       style="vector-effect:non-scaling-stroke;fill:none;fill-opacity:1;stroke:#acacac;stroke-width:0.264583;stroke-dasharray:none;stroke-dashoffset:0;stroke-opacity:1;-inkscape-stroke:hairline;paint-order:markers stroke fill"
       d="m 108.71296,234.03255 17.20463,-50.73437 -107.088037,36.31458 v 3.0887 l 56.029138,27.65206 z" />
    <path
       id="path97"
       style="vector-effect:non-scaling-stroke;fill:none;fill-opacity:1;stroke:#acacac;stroke-width:0.264583;stroke-dasharray:none;stroke-dashoffset:0;stroke-opacity:1;-inkscape-stroke:hairline;paint-order:markers stroke fill"
       d="m 108.71296,234.03255 -33.854269,16.32097 8.747786,4.31705 -20.885547,10.30789 29.025619,19.08618 z" />
    <path
       id="path96"
       style="vector-effect:non-scaling-stroke;fill:none;fill-opacity:1;stroke:#acacac;stroke-width:0.264583;stroke-dasharray:none;stroke-dashoffset:0;stroke-opacity:1;-inkscape-stroke:hairline;paint-order:markers stroke fill"
       d="m 118.47773,150.47951 -99.648177,45.67163 v 23.46162 l 107.088037,-36.31458 -17.20463,50.73437 62.15537,-29.96458 z" />
    <path
       id="path95"
       style="vector-effect:non-scaling-stroke;fill:none;fill-opacity:1;stroke:#acacac;stroke-width:0.264583;stroke-dasharray:none;stroke-dashoffset:0;stroke-opacity:1;-inkscape-stroke:hairline;paint-order:markers stroke fill"
       d="m 61.688435,92.391582 -4.015259,-4.106726 c -1.888453,4.017724 -1.903947,4.06448 -3.79305,8.084778 a 123.78736,123.78736 0 0 1 7.808309,-3.978052 z" />
    <path
       id="path94"
       style="vector-effect:non-scaling-stroke;fill:none;fill-opacity:1;stroke:#acacac;stroke-width:0.264583;stroke-dasharray:none;stroke-dashoffset:0;stroke-opacity:1;-inkscape-stroke:hairline;paint-order:markers stroke fill"
       d="M 68.440995,99.298654 78.516349,84.156942 a 123.78736,123.78736 0 0 0 -16.827914,8.23464 z" />
    <path
       id="path93"
       style="vector-effect:non-scaling-stroke;fill:none;fill-opacity:1;stroke:#acacac;stroke-width:0.264583;stroke-dasharray:none;stroke-dashoffset:0;stroke-opacity:1;-inkscape-stroke:hairline;paint-order:markers stroke fill"
       d="M 71.920886,102.85813 A 36.739033,36.739033 0 0 0 103.36031,80.221782 123.78736,123.78736 0 0 0 78.516349,84.156942 L 68.440995,99.298654 Z" />
    <path
       id="path92"
       style="vector-effect:non-scaling-stroke;fill:none;fill-opacity:1;stroke:#acacac;stroke-width:0.264583;stroke-dasharray:none;stroke-dashoffset:0;stroke-opacity:1;-inkscape-stroke:hairline;paint-order:markers stroke fill"
       d="m 66.461787,102.27315 -47.632234,71.58581 v 22.29218 L 118.47773,150.47951 71.920886,102.85813 a 36.739033,36.739033 0 0 1 -1.638143,0.43873 36.739033,36.739033 0 0 1 -3.820956,-1.02371 z" />
    <path
       id="path91"
       style="vector-effect:non-scaling-stroke;fill:none;fill-opacity:1;stroke:#acacac;stroke-width:0.264583;stroke-dasharray:none;stroke-dashoffset:0;stroke-opacity:1;-inkscape-stroke:hairline;paint-order:markers stroke fill"
       d="m 66.461787,102.27315 a 36.739033,36.739033 0 0 0 3.820956,1.02371 36.739033,36.739033 0 0 0 1.638143,-0.43873 l -3.479891,-3.559476 z" />
    <path
       id="path90"
       style="vector-effect:non-scaling-stroke;fill:none;fill-opacity:1;stroke:#acacac;stroke-width:0.264583;stroke-dasharray:none;stroke-dashoffset:0;stroke-opacity:1;-inkscape-stroke:hairline;paint-order:markers stroke fill"
       d="M 52.824894,98.619109 C 35.937208,134.56199 23.868435,160.16457 18.829553,171.07825 v 2.78071 L 66.461787,102.27315 A 36.739033,36.739033 0 0 1 52.824894,98.619109 Z" />
    <path
       id="path89"
       style="vector-effect:non-scaling-stroke;fill:none;fill-opacity:1;stroke:#acacac;stroke-width:0.264583;stroke-dasharray:none;stroke-dashoffset:0;stroke-opacity:1;-inkscape-stroke:hairline;paint-order:markers stroke fill"
       d="m 52.824894,98.619109 a 36.739033,36.739033 0 0 0 13.636893,3.654041 l 1.979208,-2.974496 -6.75256,-6.907072 a 123.78736,123.78736 0 0 0 -7.808309,3.978052 c -0.525604,1.118566 -0.530972,1.133665 -1.055232,2.249475 z" />
    <path
       id="path88"
       style="vector-effect:non-scaling-stroke;fill:none;fill-opacity:1;stroke:#acacac;stroke-width:0.264583;stroke-dasharray:none;stroke-dashoffset:0;stroke-opacity:1;-inkscape-stroke:hairline;paint-order:markers stroke fill"
       d="M 51.249279,97.710637 A 123.78736,123.78736 0 0 0 18.829553,126.10425 v 44.974 c 5.038882,-10.91368 17.107655,-36.51626 33.995341,-72.459141 a 36.739033,36.739033 0 0 1 -1.575615,-0.908472 z" />
    <path
       id="path87"
       style="vector-effect:non-scaling-stroke;fill:none;fill-opacity:1;stroke:#acacac;stroke-width:0.264583;stroke-dasharray:none;stroke-dashoffset:0;stroke-opacity:1;-inkscape-stroke:hairline;paint-order:markers stroke fill"
       d="m 51.249279,97.710637 a 36.739033,36.739033 0 0 0 1.575615,0.908472 c 0.52426,-1.11581 0.529628,-1.130909 1.055232,-2.249475 a 123.78736,123.78736 0 0 0 -2.630847,1.341003 z" />
    <path
       id="path86"
       style="vector-effect:non-scaling-stroke;fill:none;fill-opacity:1;stroke:#acacac;stroke-width:0.264583;stroke-dasharray:none;stroke-dashoffset:0;stroke-opacity:1;-inkscape-stroke:hairline;paint-order:markers stroke fill"
       d="M 34.165051,64.239295 18.829553,48.552914 V 126.10425 A 123.78736,123.78736 0 0 1 51.249279,97.710637 36.739033,36.739033 0 0 1 33.5439,66.5575 36.739033,36.739033 0 0 1 34.165051,64.239295 Z" />
    <path
       id="path85"
       style="vector-effect:non-scaling-stroke;fill:none;fill-opacity:1;stroke:#acacac;stroke-width:0.264583;stroke-dasharray:none;stroke-dashoffset:0;stroke-opacity:1;-inkscape-stroke:hairline;paint-order:markers stroke fill"
       d="M 34.165051,64.239295 A 36.739033,36.739033 0 0 0 33.5439,66.5575 36.739033,36.739033 0 0 0 51.249279,97.710637 123.78736,123.78736 0 0 1 53.880126,96.369634 c 1.889103,-4.020298 1.904597,-4.067054 3.79305,-8.084778 z" />
    <path
       id="path84"
       style="vector-effect:non-scaling-stroke;fill:none;fill-opacity:1;stroke:#acacac;stroke-width:0.264583;stroke-dasharray:none;stroke-dashoffset:0;stroke-opacity:1;-inkscape-stroke:hairline;paint-order:markers stroke fill"
       d="M 98.297053,1.6973763 C 97.859156,2.6275697 88.105566,23.447873 83.860208,32.469141 A 36.739033,36.739033 0 0 1 102.15677,48.627845 L 133.3838,1.6973763 Z" />
    <path
       id="path83"
       style="vector-effect:non-scaling-stroke;fill:none;fill-opacity:1;stroke:#acacac;stroke-width:0.264583;stroke-dasharray:none;stroke-dashoffset:0;stroke-opacity:1;-inkscape-stroke:hairline;paint-order:markers stroke fill"
       d="m 50.235388,36.418771 a 36.739033,36.739033 0 0 1 20.047355,-6.600114 36.739033,36.739033 0 0 1 13.577465,2.650484 C 88.105566,23.447873 97.859156,2.6275697 98.297053,1.6973763 h -79.4675 V 25.663872 Z" />
    <path
       id="path82"
       style="vector-effect:non-scaling-stroke;fill:none;fill-opacity:1;stroke:#acacac;stroke-width:0.264583;stroke-dasharray:none;stroke-dashoffset:0;stroke-opacity:1;-inkscape-stroke:hairline;paint-order:markers stroke fill"
       d="M 50.235388,36.418771 18.829553,25.663872 V 48.552914 L 34.165051,64.239295 A 36.739033,36.739033 0 0 1 50.235388,36.418771 Z" />
    <path
       id="path81"
       style="vector-effect:non-scaling-stroke;fill:none;fill-opacity:1;stroke:#acacac;stroke-width:0.264583;stroke-dasharray:none;stroke-dashoffset:0;stroke-opacity:1;-inkscape-stroke:hairline;paint-order:markers stroke fill"
       d="m 77.60891,45.792876 c 2.343377,-4.980604 4.413101,-9.417615 6.251298,-13.323735 A 36.739033,36.739033 0 0 0 70.282743,29.818657 36.739033,36.739033 0 0 0 50.235388,36.418771 Z" />
    <path
       id="path80"
       style="vector-effect:non-scaling-stroke;fill:none;fill-opacity:1;stroke:#acacac;stroke-width:0.264583;stroke-dasharray:none;stroke-dashoffset:0;stroke-opacity:1;-inkscape-stroke:hairline;paint-order:markers stroke fill"
       d="M 77.60891,45.792876 50.235388,36.418771 A 36.739033,36.739033 0 0 0 34.165051,64.239295 L 57.673176,88.284856 C 67.598531,67.168459 70.135487,61.676865 77.60891,45.792876 Z" />
    <path
       id="path79"
       style="vector-effect:non-scaling-stroke;fill:none;fill-opacity:1;stroke:#acacac;stroke-width:0.264583;stroke-dasharray:none;stroke-dashoffset:0;stroke-opacity:1;-inkscape-stroke:hairline;paint-order:markers stroke fill"
       d="m 99.137312,53.165553 3.019458,-4.537708 A 36.739033,36.739033 0 0 0 83.860208,32.469141 c -1.838197,3.90612 -3.907921,8.343131 -6.251298,13.323735 z" />
    <path
       id="path78"
       style="vector-effect:non-scaling-stroke;fill:none;fill-opacity:1;stroke:#acacac;stroke-width:0.264583;stroke-dasharray:none;stroke-dashoffset:0;stroke-opacity:1;-inkscape-stroke:hairline;paint-order:markers stroke fill"
       d="M 99.137312,53.165553 77.60891,45.792876 C 70.135487,61.676865 67.598531,67.168459 57.673176,88.284856 l 4.015259,4.106726 a 123.78736,123.78736 0 0 1 16.827914,-8.23464 z" />
    <path
       id="path77"
       style="vector-effect:non-scaling-stroke;fill:none;fill-opacity:1;stroke:#acacac;stroke-width:0.264583;stroke-dasharray:none;stroke-dashoffset:0;stroke-opacity:1;-inkscape-stroke:hairline;paint-order:markers stroke fill"
       d="m 105.04083,55.187135 a 36.739033,36.739033 0 0 0 -2.88406,-6.55929 l -3.019458,4.537708 z" />
    <path
       id="path76"
       style="vector-effect:non-scaling-stroke;fill:none;fill-opacity:1;stroke:#acacac;stroke-width:0.264583;stroke-dasharray:none;stroke-dashoffset:0;stroke-opacity:1;-inkscape-stroke:hairline;paint-order:markers stroke fill"
       d="M 105.04083,55.187135 99.137312,53.165553 78.516349,84.156942 a 123.78736,123.78736 0 0 1 24.843961,-3.93516 36.739033,36.739033 0 0 0 3.66128,-13.664282 36.739033,36.739033 0 0 0 -1.98076,-11.370365 z" />
    <path
       id="path75"
       style="vector-effect:non-scaling-stroke;fill:none;fill-opacity:1;stroke:#acacac;stroke-width:0.264583;stroke-dasharray:none;stroke-dashoffset:0;stroke-opacity:1;-inkscape-stroke:hairline;paint-order:markers stroke fill"
       d="m 180.43313,122.08383 20.74033,-9.50588 a 123.78736,123.78736 0 0 0 -15.66468,-12.622489 35.490544,35.490544 0 0 0 -5.934,18.924429 35.490544,35.490544 0 0 0 0.85835,3.20394 z" />
    <path
       id="path74"
       style="vector-effect:non-scaling-stroke;fill:none;fill-opacity:1;stroke:#acacac;stroke-width:0.264583;stroke-dasharray:none;stroke-dashoffset:0;stroke-opacity:1;-inkscape-stroke:hairline;paint-order:markers stroke fill"
       d="m 228.35733,150.80869 a 123.78736,123.78736 0 0 0 -27.18387,-38.23074 l -20.74033,9.50588 a 35.490544,35.490544 0 0 0 34.63199,32.2864 35.490544,35.490544 0 0 0 13.29221,-3.56154 z" />
    <path
       id="path73"
       style="vector-effect:non-scaling-stroke;fill:none;fill-opacity:1;stroke:#acacac;stroke-width:0.264583;stroke-dasharray:none;stroke-dashoffset:0;stroke-opacity:1;-inkscape-stroke:hairline;paint-order:markers stroke fill"
       d="m 228.92009,249.33962 a 123.78736,123.78736 0 0 1 -4.72529,9.27386 l 4.72529,4.83329 z" />
    <path
       id="path72"
       style="vector-effect:non-scaling-stroke;fill:none;fill-opacity:1;stroke:#acacac;stroke-width:0.264583;stroke-dasharray:none;stroke-dashoffset:0;stroke-opacity:1;-inkscape-stroke:hairline;paint-order:markers stroke fill"
       d="m 228.92009,150.65779 a 35.490544,35.490544 0 0 1 -0.56276,0.1509 123.78736,123.78736 0 0 1 0.56276,1.35857 z" />
    <path
       id="path71"
       style="vector-effect:non-scaling-stroke;fill:none;fill-opacity:1;stroke:#acacac;stroke-width:0.264583;stroke-dasharray:none;stroke-dashoffset:0;stroke-opacity:1;-inkscape-stroke:hairline;paint-order:markers stroke fill"
       d="m 228.92009,99.86141 -27.74663,12.71654 a 123.78736,123.78736 0 0 1 27.18387,38.23074 35.490544,35.490544 0 0 0 0.56276,-0.1509 z" />
    <path
       id="path70"
       style="vector-effect:non-scaling-stroke;fill:none;fill-opacity:1;stroke:#acacac;stroke-width:0.264583;stroke-dasharray:none;stroke-dashoffset:0;stroke-opacity:1;-inkscape-stroke:hairline;paint-order:markers stroke fill"
       d="M 228.92009,97.609868 199.54204,87.548984 a 35.490544,35.490544 0 0 0 -14.03326,12.406477 123.78736,123.78736 0 0 1 15.66468,12.622489 l 27.74663,-12.71654 z" />
    <path
       id="path69"
       style="vector-effect:non-scaling-stroke;fill:none;fill-opacity:1;stroke:#acacac;stroke-width:0.264583;stroke-dasharray:none;stroke-dashoffset:0;stroke-opacity:1;-inkscape-stroke:hairline;paint-order:markers stroke fill"
       d="m 228.92009,86.236919 a 35.490544,35.490544 0 0 0 -13.85497,-2.847372 35.490544,35.490544 0 0 0 -15.52308,4.159437 l 29.37805,10.060884 z" />
    <path
       id="path68"
       style="vector-effect:non-scaling-stroke;fill:none;fill-opacity:1;stroke:#acacac;stroke-width:0.264583;stroke-dasharray:none;stroke-dashoffset:0;stroke-opacity:1;-inkscape-stroke:hairline;paint-order:markers stroke fill"
       d="m 209.57347,1.6973763 5.40277,9.9993897 -27.86652,54.500032 41.81037,-7.661031 V 1.6973763 Z" />
    <path
       id="path67"
       style="vector-effect:non-scaling-stroke;fill:none;fill-opacity:1;stroke:#acacac;stroke-width:0.264583;stroke-dasharray:none;stroke-dashoffset:0;stroke-opacity:1;-inkscape-stroke:hairline;paint-order:markers stroke fill"
       d="m 141.28358,67.598263 58.25846,19.950721 a 35.490544,35.490544 0 0 1 15.52308,-4.159437 35.490544,35.490544 0 0 1 13.85497,2.847372 V 58.535767 l -41.81037,7.661031 27.86652,-54.500032 -5.40277,-9.9993897 h -30.517 l -41.3365,55.3924847 z" />
    <path
       id="path66"
       style="vector-effect:non-scaling-stroke;fill:none;fill-opacity:1;stroke:#acacac;stroke-width:0.264583;stroke-dasharray:none;stroke-dashoffset:0;stroke-opacity:1;-inkscape-stroke:hairline;paint-order:markers stroke fill"
       d="M 141.28358,67.598263 137.71997,57.089861 179.05647,1.6973763 H 133.3838 L 102.15677,48.627845 a 36.739033,36.739033 0 0 1 2.88406,6.55929 z" />
    <path
       id="path65"
       style="vector-effect:non-scaling-stroke;fill:none;fill-opacity:1;stroke:#acacac;stroke-width:0.264583;stroke-dasharray:none;stroke-dashoffset:0;stroke-opacity:1;-inkscape-stroke:hairline;paint-order:markers stroke fill"
       d="m 146.23004,82.18497 a 123.78736,123.78736 0 0 1 39.27874,17.770491 35.490544,35.490544 0 0 1 14.03326,-12.406477 L 141.28358,67.598263 Z" />
    <path
       id="path64"
       style="vector-effect:non-scaling-stroke;fill:none;fill-opacity:1;stroke:#acacac;stroke-width:0.264583;stroke-dasharray:none;stroke-dashoffset:0;stroke-opacity:1;-inkscape-stroke:hairline;paint-order:markers stroke fill"
       d="M 146.23004,82.18497 141.28358,67.598263 105.04083,55.187135 a 36.739033,36.739033 0 0 1 1.98076,11.370365 36.739033,36.739033 0 0 1 -3.66128,13.664282 123.78736,123.78736 0 0 1 12.44162,-1.970422 123.78736,123.78736 0 0 1 30.42811,3.93361 z" />
    <path
       id="path63"
       style="vector-effect:non-scaling-stroke;fill:none;fill-opacity:1;stroke:#acacac;stroke-width:0.264583;stroke-dasharray:none;stroke-dashoffset:0;stroke-opacity:1;-inkscape-stroke:hairline;paint-order:markers stroke fill"
       d="m 162.54068,130.28436 17.89245,-8.20053 a 35.490544,35.490544 0 0 1 -0.85835,-3.20394 35.490544,35.490544 0 0 1 5.934,-18.924429 123.78736,123.78736 0 0 0 -39.27874,-17.770491 z" />
    <path
       id="path62"
       style="vector-effect:non-scaling-stroke;fill:none;fill-opacity:1;stroke:#acacac;stroke-width:0.264583;stroke-dasharray:none;stroke-dashoffset:0;stroke-opacity:1;-inkscape-stroke:hairline;paint-order:markers stroke fill"
       d="M 162.54068,130.28436 146.23004,82.18497 a 123.78736,123.78736 0 0 0 -30.42811,-3.93361 123.78736,123.78736 0 0 0 -12.44162,1.970422 36.739033,36.739033 0 0 1 -31.439424,22.636348 l 46.556844,47.62138 z" />
    <path
       id="path61"
       style="vector-effect:non-scaling-stroke;fill:none;fill-opacity:1;stroke:#acacac;stroke-width:0.264583;stroke-dasharray:none;stroke-dashoffset:0;stroke-opacity:1;-inkscape-stroke:hairline;paint-order:markers stroke fill"
       d="m 185.2163,197.15108 43.70379,-21.069 v -23.91482 a 123.78736,123.78736 0 0 0 -0.56276,-1.35857 35.490544,35.490544 0 0 1 -13.29221,3.56154 35.490544,35.490544 0 0 1 -34.63199,-32.2864 l -17.89245,8.20053 z" />
    <path
       id="path60"
       style="vector-effect:non-scaling-stroke;fill:none;fill-opacity:1;stroke:#acacac;stroke-width:0.264583;stroke-dasharray:none;stroke-dashoffset:0;stroke-opacity:1;-inkscape-stroke:hairline;paint-order:markers stroke fill"
       d="m 185.2163,197.15108 -22.67562,-66.86672 -44.06295,20.19515 52.3906,53.58846 z" />
    <path
       id="path59"
       style="vector-effect:non-scaling-stroke;fill:none;fill-opacity:1;stroke:#acacac;stroke-width:0.264583;stroke-dasharray:none;stroke-dashoffset:0;stroke-opacity:1;-inkscape-stroke:hairline;paint-order:markers stroke fill"
       d="m 196.42698,230.21108 27.76782,28.4024 a 123.78736,123.78736 0 0 0 4.72529,-9.27386 v -73.25754 l -43.70379,21.069 z" />
    <path
       id="path58"
       style="vector-effect:non-scaling-stroke;fill:none;fill-opacity:1;stroke:#acacac;stroke-width:0.264583;stroke-dasharray:none;stroke-dashoffset:0;stroke-opacity:1;-inkscape-stroke:hairline;paint-order:markers stroke fill"
       d="m 196.42698,230.21108 -11.21068,-33.06 -14.34797,6.91689 z" />
    <path
       id="path57"
       style="vector-effect:non-scaling-stroke;fill:none;fill-opacity:1;stroke:#acacac;stroke-width:0.264583;stroke-dasharray:none;stroke-dashoffset:0;stroke-opacity:1;-inkscape-stroke:hairline;paint-order:markers stroke fill"
       d="m 212.66165,278.08516 a 123.78736,123.78736 0 0 0 11.53315,-19.47168 l -27.76782,-28.4024 z" />
    <path
       id="path56"
       style="vector-effect:non-scaling-stroke;fill:none;fill-opacity:1;stroke:#acacac;stroke-width:0.264583;stroke-dasharray:none;stroke-dashoffset:0;stroke-opacity:1;-inkscape-stroke:hairline;paint-order:markers stroke fill"
       d="m 212.66165,278.08516 -16.23467,-47.87408 -25.55865,-26.14311 -62.15537,29.96458 -16.966411,50.03209 22.455481,14.7655 h 77.71463 a 123.78736,123.78736 0 0 0 20.74499,-20.74498 z" />
    <path
       id="path55"
       style="vector-effect:non-scaling-stroke;fill:none;fill-opacity:1;stroke:#acacac;stroke-width:0.264583;stroke-dasharray:none;stroke-dashoffset:0;stroke-opacity:1;-inkscape-stroke:hairline;paint-order:markers stroke fill"
       d="m 219.69636,298.83014 h 9.22373 v -35.38337 l -4.72529,-4.83329 a 123.78736,123.78736 0 0 1 -11.53315,19.47168 z" />
    <path
       id="path54"
       style="vector-effect:non-scaling-stroke;fill:none;fill-opacity:1;stroke:#acacac;stroke-width:0.264583;stroke-dasharray:none;stroke-dashoffset:0;stroke-opacity:1;-inkscape-stroke:hairline;paint-order:markers stroke fill"
       d="m 219.69636,298.83014 -7.03471,-20.74498 a 123.78736,123.78736 0 0 1 -20.74499,20.74498 z" />
  </g>
</svg>
