<?xml version="1.0" encoding="UTF-8" standalone="no"?>
<!-- Created with Inkscape (http://www.inkscape.org/) -->

<svg
   width="541.99933mm"
   height="27.211103mm"
   viewBox="0 0 541.99933 27.211103"
   version="1.1"
   id="svg1"
   xmlns="http://www.w3.org/2000/svg"
   xmlns:svg="http://www.w3.org/2000/svg">
  <defs
     id="defs1" />
  <g
     id="layer1"
     transform="translate(0.0637623,-128.49945)">
    <path
       id="rect9"
       style="fill:#e3e3e3;fill-opacity:1;fill-rule:nonzero;stroke:#000000;stroke-width:0.376605;stroke-linecap:round;stroke-linejoin:miter;stroke-dasharray:none;stroke-dashoffset:0;stroke-opacity:1;paint-order:markers stroke fill"
       d="m 308.62406,128.68775 -3.36672,4.68189 h 12.94908 l -0.9679,-4.68189 z m -114.35633,0.0114 1.47329,4.67052 8.40363,-0.0114 -1.29088,-4.65915 z m 13.53871,0 -1.38907,4.69222 h 11.32231 l -1.33325,-4.69222 z m 13.46843,0 -1.31879,4.71444 h 6.80476 l 1.37459,-4.71444 z m 18.02835,0 -1.41697,4.6483 13.23021,0.0439 0.50487,0.12041 0.46302,0.24133 0.19638,0.32918 v 0.27388 l -0.19638,0.32918 -0.37878,0.18603 -0.46302,0.14263 -0.89814,0.0987 -12.92118,-0.0109 -3.95634,13.94592 h 7.506 l 2.59519,-8.59586 6.12262,15.0704 h 7.70134 l -5.95312,-15.31173 2.91816,-0.97565 c 2.44118,-1.08906 3.6618,-2.77756 3.6618,-5.06532 0,-0.8771 -0.17277,-1.8272 -0.51884,-2.85047 -0.50506,-1.49107 -1.82434,-2.32773 -3.95686,-2.51044 l -1.30431,-0.10956 z m 23.1774,0 -1.34721,4.68137 h 18.1405 l 1.36116,-4.68137 z m 64.25603,0 -1.34669,4.70307 h 20.87624 l 1.33274,-4.70307 z m -97.10002,0.0109 -1.33274,4.65967 h 7.32359 l 1.34669,-4.65967 z m 56.49784,0 -7.47138,6.82543 0.10594,-0.38964 h -18.09864 l -3.94239,13.89062 18.14049,-0.0109 1.61334,-5.73402 h -11.06909 l 0.86971,-2.9931 h 10.80193 l 3.6065,8.73797 h 16.7659 5.92057 l 5.4715,-8.2336 h 2.66547 l 0.89814,8.22275 h 8.51575 l -2.39882,-13.84722 h -14.14228 l -0.50488,0.58136 -5.77536,8.02535 h -11.9724 l -1.68362,-5.22965 5.82239,-5.16403 h 11.49025 l 1.57148,-4.68137 z m -80.20802,6.41357 -0.58911,1.98437 -0.57516,-1.96215 -8.33386,0.0109 4.53151,13.86892 h 7.85688 l 2.58124,-9.15448 3.11454,9.15448 h 7.84293 l 3.91397,-13.87977 h -6.81819 l -0.57515,1.96215 -0.57516,-1.98437 z m 125.65073,0.0222 -3.95687,13.87977 h 7.66052 l 3.91449,-13.87977 z m -103.77816,0.0109 -3.92845,13.87977 h 7.33754 l 3.91449,-13.87977 z M 0.1245402,137.06657 v 1.48776 H 195.56997 l -0.4904,-1.48776 z m 340.4143598,0 -0.41909,1.48776 h 201.62748 v -1.48776 z M 0.19171956,151.68583 v 3.57549 H 247.62675 l -1.38338,-3.57549 z m 257.43442044,0 1.38337,3.57549 h 282.67267 v -3.57549 z" />
  </g>
  <g
     id="layer2"
     style="display:none"
     transform="translate(0.0637623,-128.49945)">
    <g
       id="layer1-6"
       transform="translate(71.702073,-43.514307)">
      <rect
         style="fill:#e3e3e3;fill-opacity:1;stroke:#000000;stroke-width:0.264583;stroke-linecap:round;stroke-linejoin:miter;stroke-dasharray:none;stroke-dashoffset:0;stroke-opacity:1;paint-order:markers stroke fill"
         id="rect10-48-1"
         width="51.845707"
         height="9.9154177"
         x="210.23256"
         y="-184.84782"
         transform="rotate(68.851481)" />
      <rect
         style="fill:#e3e3e3;fill-opacity:1;stroke:#000000;stroke-width:0.264583;stroke-linecap:round;stroke-linejoin:miter;stroke-dasharray:none;stroke-dashoffset:0;stroke-opacity:1;paint-order:markers stroke fill"
         id="rect10-48-2-5"
         width="51.845707"
         height="9.9154177"
         x="212.13342"
         y="-185.54848"
         transform="rotate(68.851481)" />
    </g>
  </g>
</svg>
