<?xml version="1.0" encoding="UTF-8" standalone="no"?>
<!-- Created with Inkscape (http://www.inkscape.org/) -->

<svg
   width="188.59094mm"
   height="44.844421mm"
   viewBox="0 0 188.59094 44.844421"
   version="1.1"
   id="svg1"
   xmlns="http://www.w3.org/2000/svg"
   xmlns:svg="http://www.w3.org/2000/svg">
  <defs
     id="defs1" />
  <g
     id="layer1"
     transform="translate(-33.500304,-79.97784)">
    <path
       style="font-size:133.333px;font-family:'Metal Gear';-inkscape-font-specification:'Metal Gear';white-space:pre;stroke:#000000;stroke-width:1.00157"
       d="m 127.25453,302.84435 h 39.84365 l 5.98957,27.6692 -38.9973,0.0651 z m 62.82536,0 h 39.90876 l 6.18488,27.86451 H 183.6346 Z m 56.38007,27.99472 6.11977,-27.99472 h 31.83586 l -6.38019,27.99472 z m -7.68227,10.15622 2.66926,11.78382 2.66926,-11.65361 h 31.64055 l -18.16402,82.42166 h -36.39313 l -14.45309,-54.36184 -11.97914,54.36184 h -36.45824 l -21.02859,-82.35656 38.67177,-0.0651 2.66927,11.65361 2.73437,-11.78382 z m 80.40344,-10.41664 6.24998,-27.6692 h -34.04939 l -6.18488,27.6692 z m -54.55715,93.03362 h 34.04939 L 316.83739,341.1906 H 282.8531 Z m 65.0389,-93.16383 61.39307,0.26042 2.34375,0.71614 2.14843,1.43229 0.91145,1.95312 v 1.6276 l -0.91145,1.95312 -1.75781,1.10677 -2.14843,0.84635 -4.16666,0.58594 -59.96078,-0.0651 -18.35933,82.81229 h 34.83064 L 356.03,372.63583 387.34502,471.2684 h 35.61189 l -30.40357,-100.06485 13.54164,-5.79426 q 16.99214,-9.7005 16.99214,-30.07805 0,-7.81248 -2.40885,-16.92704 -3.51561,-13.28121 -18.35933,-14.90881 l -6.05467,-0.65104 h -60.02589 z m 107.87732,0.19531 h 84.17947 l 6.31509,-27.7994 h -84.24457 z m -20.44265,92.96852 84.17947,-0.0651 7.48696,-34.04939 h -51.36706 l 4.03645,-17.77339 h 51.43216 l 6.5104,-30.59888 h -83.98416 z m 89.84352,-66.21077 21.35411,66.21077 h 77.79928 l 6.4453,-31.18482 h -58.98422 l -7.81248,-31.05461 27.01816,-30.66398 h 53.32017 l 7.29165,-27.79941 h -79.8175 z m 128.97104,-12.63018 -44.33583,78.84095 h 41.99208 l 25.39056,-48.89311 h 12.36976 l 4.16666,48.828 h 39.51813 l -11.13279,-82.22635 h -65.62483 z m 6.38019,-14.19267 15.62496,-27.79941 h 39.97385 l 4.49218,27.79941 z m 122.1351,10.54685 -18.35933,82.42166 h 35.54678 l 18.16402,-82.42166 z m -28.71087,-10.35154 h 96.87476 l 6.18488,-27.92961 h -96.80965 z"
       id="text1"
       transform="scale(0.26458333)"
       aria-label="WIRECAT" />
  </g>
</svg>
